# xmcd CD database file
#
# Track frame offsets:
#	150
#	12046
#	25343
#	38642
#	51010
#	62154
#	75441
#	87504
#	100041
#	113181
#	125412
#	136954
#	149599
#	163002
#	175225
#	187435
#	201041
#	215039
#	227676
#	239235
#	251411
#	264337
#	276650
#	289389
#	302819
#
# Disc length: 4217 seconds
#
# Revision: 1
# Processed by: cddbd v1.5.2PL0 Copyright (c) Steve Scherf et al.
# Submitted via: CDex 1.70beta2
#
DISCID=7b107719
DTITLE=Sons of the Pioneers - My Saddle Pals and I - disc 2, Cool Water
DYEAR=2005
DGENRE=Country
TTITLE0=Hold That Critter Down
TTITLE1=At The Rainbow's End
TTITLE2=So Long to the Red River Valley
TTITLE3=Cool Water
TTITLE4=When the Moon Comes Over Sun Valley
TTITLE5=Private Buckaroo
TTITLE6=I Hang My Head and Cry
TTITLE7=Forgive and Forget
TTITLE8=Cool Water
TTITLE9=Timber Trail
TTITLE10=Stars and Stripes On Iwo Jima(Isle)
TTITLE11=You're Getting Tired of Me
TTITLE12=Gold Star Mother With Silvery Hair
TTITLE13=You'll Be Sorry When I'm Gone
TTITLE14=I Wear Your Memory in My Heart
TTITLE15=A Little White Cross on the Hill
TTITLE16=Rock Me To Sleep in My Saddle
TTITLE17=I Can't Go on This Way
TTITLE18=Cowboy Camp Meeting
TTITLE19=Tumbling Tumbleweeds
TTITLE20=Out California Way
TTITLE21=Grievin' My Heart Out For You
TTITLE22=No One To Cry To
TTITLE23=The Everlasting Hills of Oklahoma
TTITLE24=Chant of the Wanderer
EXTD=YEAR: 2005
EXTT0=
EXTT1=
EXTT2=
EXTT3=
EXTT4=
EXTT5=
EXTT6=
EXTT7=
EXTT8=
EXTT9=
EXTT10=
EXTT11=
EXTT12=
EXTT13=
EXTT14=
EXTT15=
EXTT16=
EXTT17=
EXTT18=
EXTT19=
EXTT20=
EXTT21=
EXTT22=
EXTT23=
EXTT24=
PLAYORDER=
